<svg width="97" height="67" viewBox="0 0 97 67" fill="none" xmlns="http://www.w3.org/2000/svg">
<circle cx="32.0636" cy="32.4889" r="31.9054" fill="#8DCBE8"/>
<path d="M95.3493 14.4879C95.9963 15.5669 95.6485 16.9566 94.5732 17.589L88.4317 21.2717C87.8265 21.6346 87.4509 22.2837 87.4379 22.9892L87.2116 35.2064C87.2016 35.7464 86.9151 36.2436 86.4528 36.523V36.523C85.5422 37.0734 84.3593 36.5795 84.1105 35.5449L82.3095 28.0566C81.9864 26.713 80.4521 26.0691 79.2669 26.7798L75.4059 29.095C74.8516 29.4274 74.4869 30.002 74.4221 30.645L74.2104 32.7435C74.1708 33.1363 73.9471 33.4869 73.6076 33.6883V33.6883C72.8984 34.1091 71.9835 33.7356 71.7713 32.9387L70.935 29.7983C70.8363 29.4275 70.6353 29.0919 70.355 28.8299L67.967 26.5971C67.3628 26.0322 67.4628 25.047 68.1682 24.615V24.615C68.5096 24.4059 68.9305 24.3727 69.3005 24.5258L71.2814 25.3451C71.8801 25.5927 72.5607 25.5422 73.1163 25.209L76.9279 22.9234C78.1107 22.2141 78.2678 20.5618 77.2397 19.6424L71.4746 14.4866C70.6812 13.7771 70.8047 12.5013 71.7195 11.9571V11.9571C72.1849 11.6803 72.7597 11.6617 73.242 11.9078L84.1236 17.4622C84.7521 17.783 85.5016 17.7574 86.1067 17.3945L92.2482 13.7118C93.2797 13.0684 94.7425 13.4345 95.3493 14.4879Z" fill="#DFDFDF"/>
<path d="M59.045 12.0758C55.2414 10.1314 50.9325 9.03467 46.3674 9.03467C30.9637 9.03467 18.4766 21.5218 18.4766 36.9255C18.4766 52.3291 30.9637 64.8163 46.3674 64.8163C59.2872 64.8163 70.1552 56.0316 73.3242 44.1095" stroke="#454545" stroke-width="2.45616" stroke-linecap="round"/>
<path d="M32.209 28.4735L33.436 28.5246L32.209 28.4735ZM35.1671 40.0947L34.9038 38.8952L35.1671 40.0947ZM43.8301 34.6011H45.0582C45.0582 34.44 45.0265 34.2804 44.9649 34.1315L43.8301 34.6011ZM43.8301 26.7832L44.5114 27.805L43.8301 26.7832ZM48.056 51.7159L47.5795 50.584L48.056 51.7159ZM63.2692 48.5465L64.0554 47.603L64.0554 47.603L63.2692 48.5465ZM60.5486 36.3781C61.1799 36.1302 61.4908 35.4175 61.2429 34.7861C60.995 34.1548 60.2823 33.844 59.6509 34.0918L60.5486 36.3781ZM21.7164 25.2623C23.4351 25.1612 25.9683 25.2582 28.0015 25.8357C29.0212 26.1253 29.8123 26.5075 30.3197 26.9577C30.7874 27.3725 31.0067 27.8294 30.9819 28.4223L33.436 28.5246C33.4958 27.0891 32.8858 25.9507 31.9496 25.1203C31.0533 24.3251 29.8661 23.8119 28.6725 23.473C26.2791 22.7932 23.4454 22.7001 21.5722 22.8103L21.7164 25.2623ZM30.9819 28.4223C30.9359 29.5266 30.5954 30.8718 30.1804 32.3678C29.7848 33.7937 29.3144 35.378 29.1417 36.745C28.9777 38.044 29.0057 39.6775 30.218 40.7239C31.3974 41.742 33.2202 41.7794 35.4304 41.2943L34.9038 38.8952C32.7824 39.3609 32.0433 39.0549 31.8229 38.8647C31.6353 38.7027 31.4257 38.2629 31.5785 37.0528C31.7228 35.9106 32.124 34.5499 32.5472 33.0243C32.951 31.5688 33.3763 29.9559 33.436 28.5246L30.9819 28.4223ZM35.4304 41.2943C39.0168 40.507 41.3733 39.3717 42.862 38.1875C44.3147 37.0321 45.0582 35.7221 45.0582 34.6011H42.6021C42.6021 34.6775 42.4793 35.3536 41.3331 36.2653C40.2229 37.1483 38.2478 38.1612 34.9038 38.8952L35.4304 41.2943ZM44.9649 34.1315C44.573 33.1844 44.1078 31.6894 43.9749 30.3152C43.9085 29.6277 43.9323 29.0389 44.0461 28.5893C44.1572 28.1503 44.33 27.9259 44.5114 27.805L43.1489 25.7614C42.316 26.3166 41.8761 27.1522 41.665 27.9868C41.4565 28.8107 41.4487 29.7088 41.5302 30.5515C41.6931 32.2375 42.2421 33.9752 42.6954 35.0707L44.9649 34.1315ZM44.5114 27.805C45.7239 26.9967 47.3394 25.9917 48.5272 25.0525C49.1191 24.5845 49.6988 24.0622 50.0893 23.5147C50.4525 23.0053 50.8964 22.1113 50.4222 21.1629L48.2254 22.2614C48.0681 21.9469 48.3007 21.7924 48.0895 22.0886C47.9055 22.3466 47.5476 22.6959 47.0038 23.1259C45.9202 23.9827 44.4719 24.8794 43.1489 25.7614L44.5114 27.805ZM50.4222 21.1629C50.1572 20.6329 49.6754 20.1428 49.2894 19.7695C48.8156 19.3114 48.448 18.994 48 18.546C47.5858 18.1317 47.2756 17.7679 47.0905 17.4457C46.909 17.1297 46.9157 16.9746 46.9306 16.9075L44.5329 16.3747C44.3366 17.2585 44.6074 18.0542 44.9607 18.6692C45.3105 19.2779 45.8059 19.8253 46.2632 20.2827C46.6868 20.7063 47.2568 21.2208 47.582 21.5352C47.9949 21.9345 48.1735 22.1576 48.2254 22.2614L50.4222 21.1629ZM46.9306 16.9075C47.051 16.3657 47.1419 15.5566 47.2424 14.8196C47.3501 14.0299 47.4802 13.2123 47.6821 12.4759C47.8889 11.7217 48.1407 11.1712 48.4226 10.8379C48.6582 10.5593 48.8902 10.4479 49.2421 10.4713L49.4055 8.02059C48.1726 7.9384 47.2162 8.4608 46.5472 9.25186C45.9244 9.98819 45.5555 10.9432 45.3134 11.8264C45.0663 12.7276 44.919 13.6795 44.8088 14.4877C44.6914 15.3485 44.6238 15.9657 44.5329 16.3747L46.9306 16.9075ZM46.7849 63.973C45.9046 62.5058 44.9862 60.1823 45.0001 57.9939C45.0069 56.9189 45.2377 55.922 45.7622 55.0675C46.2806 54.2231 47.1354 53.436 48.5326 52.8477L47.5795 50.584C45.765 51.348 44.4857 52.4521 43.669 53.7826C42.8583 55.1032 42.553 56.5652 42.544 57.9782C42.5262 60.7658 43.6574 63.5344 44.6787 65.2367L46.7849 63.973ZM48.5326 52.8477C52.534 51.1629 54.3518 50.075 55.3181 49.0421C55.8379 48.4865 56.082 47.979 56.2728 47.5649C56.4525 47.1751 56.5719 46.9025 56.8433 46.5536L54.9045 45.0457C54.4364 45.6476 54.2124 46.1674 54.0421 46.5369C53.883 46.8822 53.7706 47.101 53.5244 47.3642C52.9588 47.9688 51.6072 48.8881 47.5795 50.584L48.5326 52.8477ZM56.8433 46.5536C57.0706 46.2614 57.2281 46.208 57.3246 46.1916C57.4587 46.1687 57.7224 46.1809 58.2012 46.3937C59.2024 46.8387 60.5448 47.8747 62.483 49.4899L64.0554 47.603C62.1903 46.0488 60.5745 44.7607 59.1987 44.1492C58.489 43.8338 57.7095 43.6346 56.9125 43.7702C56.078 43.9123 55.4168 44.3871 54.9045 45.0457L56.8433 46.5536ZM62.483 49.4899C65.8259 52.2757 69.1387 52.3217 70.6302 51.8245L69.8535 49.4944C69.2321 49.7015 66.7977 49.8883 64.0554 47.603L62.483 49.4899ZM59.6509 34.0918C48.1731 38.5985 32.6877 43.7945 22.7975 44.9819C20.3292 45.2783 18.2944 45.3132 16.7926 45.063C15.2496 44.806 14.5705 44.3043 14.3192 43.8185C14.0695 43.3359 13.9952 42.3899 14.8668 40.6206C15.7206 38.8875 17.361 36.624 20.0127 33.7426L18.2054 32.0793C15.4903 35.0296 13.6689 37.4942 12.6635 39.5352C11.6758 41.54 11.3446 43.4142 12.1377 44.9471C12.9292 46.477 14.5926 47.1865 16.389 47.4858C18.2265 47.7919 20.5281 47.7282 23.0903 47.4205C33.3222 46.1921 49.0658 40.8867 60.5486 36.3781L59.6509 34.0918Z" fill="#454545"/>
<path d="M89.0153 18.7135C89.6623 19.7925 89.3145 21.1822 88.2392 21.8146L82.0977 25.4973C81.4925 25.8602 81.1169 26.5092 81.1039 27.2148L80.8776 39.4319C80.8676 39.972 80.5811 40.4691 80.1188 40.7486V40.7486C79.2083 41.299 78.0253 40.805 77.7765 39.7705L75.9756 32.2822C75.6524 30.9385 74.1181 30.2947 72.9329 31.0054L69.0719 33.3206C68.5177 33.653 68.1529 34.2276 68.0881 34.8706L67.8764 36.9691C67.8368 37.3618 67.6131 37.7125 67.2736 37.9139V37.9139C66.5644 38.3346 65.6495 37.9612 65.4373 37.1643L64.601 34.0239C64.5023 33.6531 64.3013 33.3175 64.021 33.0555L61.633 30.8227C61.0288 30.2578 61.1288 29.2726 61.8342 28.8406V28.8406C62.1756 28.6315 62.5965 28.5983 62.9665 28.7514L64.9474 29.5707C65.5461 29.8183 66.2267 29.7678 66.7823 29.4346L70.5939 27.149C71.7768 26.4397 71.9338 24.7874 70.9057 23.8679L65.1407 18.7122C64.3472 18.0026 64.4707 16.7268 65.3856 16.1827V16.1827C65.8509 15.9059 66.4257 15.8873 66.908 16.1334L77.7896 21.6877C78.4181 22.0086 79.1676 21.983 79.7728 21.6201L85.9142 17.9374C86.9457 17.294 88.4085 17.6601 89.0153 18.7135Z" stroke="#454545" stroke-width="2.45616"/>
</svg>
