<svg width="1408" height="1596" viewBox="0 0 1408 1596" fill="none" xmlns="http://www.w3.org/2000/svg">
<path d="M128.003 1436.24L0 0H1407.01L1278.83 1436.02L702.648 1595.76L128.003 1436.24Z" fill="#1572B6"/>
<path d="M703.488 1473.66L1169.11 1344.58L1278.65 117.434H703.488V1473.66Z" fill="#33A9DC"/>
<path d="M703.488 637.767H936.584L952.655 457.389H703.488V281.229H704.115H1145.17L1140.96 328.474L1097.7 813.928H703.488V637.767Z" fill="white"/>
<path d="M704.586 1095.27L703.788 1095.5L507.623 1042.5L495.085 902.014H399.738H318.24L342.918 1178.59L703.731 1278.78L704.586 1278.56V1095.27Z" fill="#EBEBEB"/>
<path d="M921.584 806.508L900.383 1042.4L703.934 1095.4V1278.68L1065.03 1178.61L1067.71 1148.86L1098.31 806.508H921.584Z" fill="white"/>
<path d="M704.092 281.229V390.652V456.933V457.389H279.163H278.593L275.06 417.78L267.024 328.474L262.807 281.229H704.092Z" fill="#EBEBEB"/>
<path d="M703.444 637.76V747.183V813.465V813.921H510.3H509.73L506.196 774.311L498.217 685.006L494 637.76H703.444Z" fill="#EBEBEB"/>
</svg>
