<svg width="17" height="14" viewBox="0 0 17 14" fill="none" xmlns="http://www.w3.org/2000/svg">
<path fill-rule="evenodd" clip-rule="evenodd" d="M1.00295 0.0610221C0.524312 0.224313 0.183866 0.629736 0.0512528 1.19445C-0.013975 1.47222 -0.0142074 1.83273 0.0506221 2.07863C0.192563 2.61673 0.818783 3.45213 1.42738 3.91525C1.52779 3.99167 2.47633 4.64936 3.53525 5.37677C4.59416 6.10419 5.67714 6.85134 5.94187 7.03705C7.50495 8.1337 7.99129 8.39141 8.49787 8.39141C8.98278 8.39141 9.46902 8.14649 10.6999 7.28227C10.9767 7.08787 12.1369 6.28905 13.2779 5.50715C15.6427 3.8867 15.6677 3.86867 15.9875 3.55405C16.9229 2.63388 17.2446 1.54093 16.8076 0.768637C16.6306 0.455955 16.2815 0.175958 15.9146 0.0524986C15.7696 0.00368514 15.1205 -0.000871642 8.46707 0.000111839C1.49795 0.0011281 1.17071 0.00378343 1.00295 0.0610221ZM0 8.08754C0 11.8374 0.00152697 11.9298 0.0665556 12.1334C0.194322 12.5332 0.565972 12.9296 0.961256 13.0877L1.14522 13.1613H8.49787H15.8505L16.0345 13.0877C16.4298 12.9296 16.8014 12.5332 16.9292 12.1334C16.9942 11.9298 16.9957 11.8374 16.9957 8.08738V4.2497L16.7551 4.47817C16.4232 4.79324 16.3201 4.86743 14.5891 6.03767C13.7493 6.60547 12.4647 7.48814 11.7344 7.99919C10.3128 8.99398 9.89196 9.24084 9.26806 9.44586C8.96884 9.54421 8.9142 9.55172 8.49787 9.55172C8.08154 9.55172 8.02691 9.54421 7.72769 9.44586C7.10535 9.24136 6.68099 8.9931 5.31117 8.0323C4.60827 7.53928 3.29376 6.63487 2.39003 6.02249C0.62788 4.82848 0.564743 4.78298 0.224065 4.46148L0 4.25003V8.08754Z" fill="#48DCA6"/>
</svg>
