<svg width="1408" height="1596" viewBox="0 0 1408 1596" fill="none" xmlns="http://www.w3.org/2000/svg">
<path d="M128.05 1436.13L0 0H1407.01L1278.79 1435.9L702.649 1595.63L128.05 1436.13Z" fill="#E44F26"/>
<path d="M703.543 1473.54L1169.13 1344.47L1278.65 117.424H703.543V1473.54Z" fill="#F1662A"/>
<path d="M703.543 650.071H470.467L454.396 469.707H703.543V293.561H702.916H261.895L266.112 340.86L309.365 826.217H703.543V650.071Z" fill="#EBEBEB"/>
<path d="M703.527 1107.48L702.729 1107.71L506.58 1054.77L494.043 914.295H398.704H317.213L341.888 1190.8L702.729 1290.98L703.527 1290.75V1107.48Z" fill="#EBEBEB"/>
<path d="M702.877 650.062V826.209H919.769L899.368 1054.67L702.877 1107.67V1290.94L1064 1190.81L1066.62 1161.06L1108 697.362L1112.33 650.062H1064.86H702.877Z" fill="white"/>
<path d="M702.877 293.561V402.975V469.308V469.707H1127.77H1128.34L1131.87 430.158L1139.91 340.86L1144.13 293.561H702.877Z" fill="white"/>
</svg>
