<svg width="14" height="14" viewBox="0 0 14 14" fill="none" xmlns="http://www.w3.org/2000/svg">
<path d="M6.99999 1.0498C10.2844 1.0498 12.95 3.7154 12.95 6.9998C12.95 10.2842 10.2844 12.9498 6.99999 12.9498C3.71559 12.9498 1.04999 10.2842 1.04999 6.9998C1.04999 3.7154 3.71559 1.0498 6.99999 1.0498ZM6.99999 6.2998C6.65205 6.2998 6.36999 6.58186 6.36999 6.9298V9.5198C6.36999 9.86774 6.65205 10.1498 6.99999 10.1498C7.34793 10.1498 7.62999 9.86774 7.62999 9.5198V6.9298C7.62999 6.58186 7.34793 6.2998 6.99999 6.2998ZM6.99999 3.8498C6.61339 3.8498 6.29999 4.16321 6.29999 4.5498C6.29999 4.9364 6.61339 5.2498 6.99999 5.2498C7.38659 5.2498 7.69999 4.9364 7.69999 4.5498C7.69999 4.16321 7.38659 3.8498 6.99999 3.8498Z" fill="white"/>
</svg>
