<svg width="1408" height="1408" viewBox="0 0 1408 1408" fill="none" xmlns="http://www.w3.org/2000/svg">
<path d="M0 0H1407.01V1407.01H0V0Z" fill="#F7DF1E"/>
<path d="M369.949 1175.79L477.623 1110.63C498.396 1147.46 517.292 1178.62 562.618 1178.62C606.065 1178.62 633.457 1161.63 633.457 1095.52V645.949H765.68V1097.39C765.68 1234.34 685.405 1296.67 568.286 1296.67C462.513 1296.67 401.114 1241.89 369.947 1175.78" fill="black"/>
<path d="M837.504 1161.63L945.164 1099.29C973.506 1145.58 1010.34 1179.58 1075.5 1179.58C1130.29 1179.58 1165.23 1152.18 1165.23 1114.41C1165.23 1069.07 1129.34 1053.01 1068.89 1026.58L1035.84 1012.4C940.448 971.795 877.166 920.794 877.166 813.123C877.166 713.953 952.722 638.393 1070.79 638.393C1154.84 638.393 1215.29 667.674 1258.73 744.177L1155.78 810.286C1133.11 769.677 1108.56 753.624 1070.79 753.624C1032.06 753.624 1007.51 778.18 1007.51 810.286C1007.51 849.955 1032.06 866.015 1088.73 890.573L1121.78 904.739C1234.17 952.91 1297.45 1002.02 1297.45 1112.52C1297.45 1231.53 1203.95 1296.69 1078.34 1296.69C955.561 1296.69 876.221 1238.13 837.504 1161.63Z" fill="black"/>
</svg>
