<svg width="53" height="53" viewBox="0 0 53 53" fill="none" xmlns="http://www.w3.org/2000/svg">
<path d="M41.9437 1.40723H11.0563C5.50238 1.40723 1 5.9096 1 11.4636V42.3509C1 47.9049 5.50238 52.4072 11.0563 52.4072H41.9437C47.4976 52.4072 52 47.9049 52 42.3509V11.4636C52 5.9096 47.4976 1.40723 41.9437 1.40723Z" fill="white" stroke="#134514" stroke-width="0.96922"/>
<path d="M27.2142 45.0306L26.2456 44.6995C26.2456 44.6995 26.3639 39.7616 24.5916 39.4072C23.4105 38.0367 24.781 -18.7168 29.0338 39.218C29.0338 39.218 27.5688 39.9503 27.3089 41.2028C27.0252 42.4316 27.2142 45.0306 27.2142 45.0306Z" fill="#A6A385"/>
<path d="M27.7337 40.2564C27.7337 40.2564 36.2163 34.6801 34.2312 23.0788C32.3176 14.6441 27.8046 11.8797 27.3084 10.8163C26.7651 10.0603 26.2451 8.7373 26.2451 8.7373L26.5997 32.1991C26.5997 32.2229 25.8669 39.3817 27.7337 40.2564Z" fill="#499D4A"/>
<path d="M25.7496 40.5644C25.7496 40.5644 17.7868 35.1299 18.2595 25.561C18.7083 15.9919 24.3317 11.29 25.4186 10.4394C26.1275 9.68333 26.1511 9.39964 26.1985 8.64355C26.6947 9.70688 26.6002 24.5451 26.6709 26.2933C26.8834 33.0271 26.2929 39.2888 25.7496 40.5644Z" fill="#58AA50"/>
</svg>
