<svg width="120" height="74" viewBox="0 0 120 74" fill="none" xmlns="http://www.w3.org/2000/svg">
<path d="M59.3493 73.4814C58.9425 73.4814 58.5627 73.3729 58.2101 73.183L54.6025 71.0402C54.06 70.7418 54.3312 70.6333 54.494 70.5791C55.2264 70.3349 55.362 70.2807 56.1215 69.8467C56.2029 69.7924 56.3114 69.8196 56.3927 69.8738L59.1595 71.5284C59.268 71.5827 59.4036 71.5827 59.485 71.5284L70.3078 65.2626C70.4163 65.2084 70.4705 65.0999 70.4705 64.9642V52.4597C70.4705 52.3241 70.4163 52.2156 70.3078 52.1613L59.485 45.9226C59.3765 45.8684 59.2408 45.8684 59.1595 45.9226L48.3367 52.1613C48.2282 52.2156 48.1739 52.3512 48.1739 52.4597V64.9642C48.1739 65.0727 48.2282 65.2084 48.3367 65.2626L51.2933 66.9715C52.8936 67.7852 53.8972 66.8358 53.8972 65.8865V53.5447C53.8972 53.3819 54.0329 53.2192 54.2227 53.2192H55.6061C55.7689 53.2192 55.9316 53.3548 55.9316 53.5447V65.8865C55.9316 68.0293 54.7652 69.2771 52.7309 69.2771C52.107 69.2771 51.6188 69.2771 50.2354 68.599L47.3873 66.9715C46.682 66.5646 46.248 65.8051 46.248 64.9914V52.4868C46.248 51.6731 46.682 50.9136 47.3873 50.5067L58.2101 44.2409C58.8882 43.8611 59.8105 43.8611 60.4886 44.2409L71.3114 50.5067C72.0166 50.9136 72.4506 51.6731 72.4506 52.4868V64.9914C72.4506 65.8051 72.0166 66.5646 71.3114 66.9715L60.4886 73.2373C60.136 73.4 59.7291 73.4814 59.3493 73.4814ZM62.6857 64.8829C57.9388 64.8829 56.9624 62.7129 56.9624 60.8684C56.9624 60.7056 57.098 60.5429 57.2878 60.5429H58.6983C58.8611 60.5429 58.9967 60.6514 58.9967 60.8141C59.2137 62.2517 59.8376 62.957 62.7128 62.957C64.9913 62.957 65.9678 62.4416 65.9678 61.221C65.9678 60.5158 65.6965 60.0004 62.1432 59.6478C59.1866 59.3494 57.3421 58.6984 57.3421 56.3385C57.3421 54.1414 59.1866 52.8394 62.2788 52.8394C65.7508 52.8394 67.4597 54.0329 67.6767 56.6369C67.6767 56.7183 67.6495 56.7997 67.5953 56.881C67.541 56.9353 67.4597 56.9895 67.3783 56.9895H65.9678C65.8322 56.9895 65.6965 56.881 65.6694 56.7454C65.3439 55.2535 64.503 54.7653 62.2788 54.7653C59.7833 54.7653 59.485 55.6333 59.485 56.2843C59.485 57.0709 59.8376 57.315 63.2011 57.749C66.5374 58.183 68.1106 58.8069 68.1106 61.1396C68.0835 63.5266 66.1305 64.8829 62.6857 64.8829Z" fill="#539E43"/>
<path d="M25.7686 24.5751C25.7686 24.0868 25.4973 23.6257 25.0633 23.3816L13.5624 16.7631C13.3725 16.6546 13.1555 16.6004 12.9385 16.5732H12.83C12.613 16.5732 12.396 16.6546 12.2062 16.7631L0.705245 23.3816C0.271248 23.6257 0 24.0868 0 24.5751L0.0271248 42.3689C0.0271248 42.6131 0.162749 42.8572 0.379747 42.9657C0.596746 43.1013 0.867994 43.1013 1.05787 42.9657L7.89332 39.0597C8.32732 38.8156 8.59857 38.3545 8.59857 37.8662V29.5389C8.59857 29.0507 8.86981 28.5895 9.30381 28.3454L12.2062 26.6637C12.4232 26.528 12.6673 26.4738 12.9114 26.4738C13.1555 26.4738 13.3997 26.528 13.5895 26.6637L16.4919 28.3454C16.9259 28.5895 17.1971 29.0507 17.1971 29.5389V37.8662C17.1971 38.3545 17.4684 38.8156 17.9024 39.0597L24.7378 42.9657C24.9548 43.1013 25.2261 43.1013 25.4431 42.9657C25.6601 42.8572 25.7957 42.6131 25.7957 42.3689L25.7686 24.5751Z" fill="#333333"/>
<path d="M81.0492 0.0813744C80.8322 -0.0271248 80.5609 -0.0271248 80.371 0.0813744C80.154 0.216999 80.0184 0.433997 80.0184 0.67812V18.3092C80.0184 18.472 79.937 18.6347 79.7743 18.7432C79.6115 18.8246 79.4488 18.8246 79.2861 18.7432L76.4108 17.0886C75.9768 16.8445 75.4615 16.8445 75.0275 17.0886L63.5265 23.7342C63.0925 23.9783 62.8213 24.4395 62.8213 24.9277V38.1917C62.8213 38.68 63.0925 39.1411 63.5265 39.3852L75.0275 46.0308C75.4615 46.2749 75.9768 46.2749 76.4108 46.0308L87.9117 39.3852C88.3457 39.1411 88.617 38.68 88.617 38.1917V5.12659C88.617 4.61122 88.3457 4.1501 87.9117 3.90597L81.0492 0.0813744ZM79.9913 33.8246C79.9913 33.9603 79.937 34.0688 79.8286 34.123L75.8954 36.4015C75.7869 36.4557 75.6513 36.4557 75.5428 36.4015L71.6097 34.123C71.5012 34.0688 71.447 33.9331 71.447 33.8246V29.2677C71.447 29.132 71.5012 29.0236 71.6097 28.9693L75.5428 26.6908C75.6513 26.6366 75.7869 26.6366 75.8954 26.6908L79.8286 28.9693C79.937 29.0236 79.9913 29.1592 79.9913 29.2677V33.8246Z" fill="#333333"/>
<path d="M119.322 29.1586C119.756 28.9144 120 28.4533 120 27.9651V24.7372C120 24.249 119.728 23.7879 119.322 23.5437L107.902 16.9253C107.468 16.6812 106.953 16.6812 106.519 16.9253L95.0177 23.5709C94.5837 23.815 94.3125 24.2761 94.3125 24.7644V38.0284C94.3125 38.5166 94.5837 38.9778 95.0177 39.2219L106.437 45.7318C106.871 45.976 107.387 45.976 107.794 45.7318L114.71 41.8801C114.927 41.7716 115.063 41.5275 115.063 41.2834C115.063 41.0392 114.927 40.7951 114.71 40.6866L103.155 34.041C102.938 33.9054 102.803 33.6884 102.803 33.4443V29.2942C102.803 29.0501 102.938 28.8059 103.155 28.6974L106.763 26.636C106.98 26.5003 107.251 26.5003 107.468 26.636L111.076 28.6974C111.293 28.8331 111.428 29.0501 111.428 29.2942V32.5492C111.428 32.7933 111.564 33.0374 111.781 33.1459C111.998 33.2815 112.269 33.2815 112.486 33.1459L119.322 29.1586Z" fill="#333333"/>
<path d="M107.035 28.5348C107.116 28.4806 107.225 28.4806 107.306 28.5348L109.503 29.8097C109.585 29.8639 109.639 29.9453 109.639 30.0538V32.6036C109.639 32.712 109.585 32.7934 109.503 32.8477L107.306 34.1225C107.225 34.1768 107.116 34.1768 107.035 34.1225L104.838 32.8477C104.756 32.7934 104.702 32.712 104.702 32.6036V30.0538C104.702 29.9453 104.756 29.8639 104.838 29.8097L107.035 28.5348Z" fill="#539E43"/>
<path d="M45.0015 16.979C44.5675 16.7349 44.0522 16.7349 43.6182 16.979L32.1986 23.5703C31.7646 23.8144 31.5205 24.2756 31.5205 24.7638V37.9736C31.5205 38.4618 31.7918 38.923 32.1986 39.1671L43.6182 45.7584C44.0522 46.0025 44.5675 46.0025 45.0015 45.7584L56.4211 39.1671C56.8551 38.923 57.0992 38.4618 57.0992 37.9736V24.7638C57.0992 24.2756 56.828 23.8144 56.4211 23.5703L45.0015 16.979Z" fill="url(#paint0_linear_4001_21357)"/>
<mask id="mask0_4001_21357" style="mask-type:luminance" maskUnits="userSpaceOnUse" x="31" y="16" width="27" height="30">
<path d="M45.0025 16.978C44.5685 16.7339 44.0531 16.7339 43.6192 16.978L32.1996 23.5693C31.7656 23.8135 31.5215 24.2746 31.5215 24.7628V37.9726C31.5215 38.4609 31.7927 38.922 32.1996 39.1661L43.6192 45.7574C44.0531 46.0016 44.5685 46.0016 45.0025 45.7574L56.4221 39.1661C56.8561 38.922 57.1002 38.4609 57.1002 37.9726V24.7628C57.1002 24.2746 56.8289 23.8135 56.4221 23.5693L45.0025 16.978Z" fill="white"/>
</mask>
<g mask="url(#mask0_4001_21357)">
<path d="M56.4482 23.5697L44.9744 16.9784C44.8659 16.9241 44.7303 16.8699 44.6218 16.8428L31.7646 38.8681C31.8731 39.0037 32.0088 39.1122 32.1444 39.1936L43.6182 45.785C43.9437 45.9748 44.3234 46.0291 44.6761 45.9206L56.7466 23.841C56.6652 23.7325 56.5567 23.6511 56.4482 23.5697Z" fill="url(#paint1_linear_4001_21357)"/>
</g>
<mask id="mask1_4001_21357" style="mask-type:luminance" maskUnits="userSpaceOnUse" x="31" y="16" width="27" height="30">
<path d="M45.0025 16.978C44.5685 16.7339 44.0531 16.7339 43.6192 16.978L32.1996 23.5693C31.7656 23.8135 31.5215 24.2746 31.5215 24.7628V37.9726C31.5215 38.4609 31.7927 38.922 32.1996 39.1661L43.6192 45.7574C44.0531 46.0016 44.5685 46.0016 45.0025 45.7574L56.4221 39.1661C56.8561 38.922 57.1002 38.4609 57.1002 37.9726V24.7628C57.1002 24.2746 56.8289 23.8135 56.4221 23.5693L45.0025 16.978Z" fill="white"/>
</mask>
<g mask="url(#mask1_4001_21357)">
<path fill-rule="evenodd" clip-rule="evenodd" d="M56.474 39.1646C56.7995 38.9747 57.0436 38.6492 57.1521 38.2966L44.5662 16.8137C44.2407 16.7595 43.8881 16.7866 43.5897 16.9765L32.1973 23.5407L44.4848 45.9458C44.6476 45.9187 44.8374 45.8644 45.0002 45.783L56.474 39.1646Z" fill="url(#paint2_linear_4001_21357)"/>
<path fill-rule="evenodd" clip-rule="evenodd" d="M56.4747 39.1647L45.0281 45.756C44.8653 45.8374 44.7026 45.8916 44.5127 45.9187L44.7297 46.3256L57.4241 38.9748V38.812L57.0986 38.2695C57.0444 38.6493 56.8002 38.9748 56.4747 39.1647Z" fill="url(#paint3_linear_4001_21357)"/>
<path fill-rule="evenodd" clip-rule="evenodd" d="M56.4747 39.1647L45.0281 45.756C44.8653 45.8374 44.7026 45.8916 44.5127 45.9187L44.7297 46.3256L57.4241 38.9748V38.812L57.0986 38.2695C57.0444 38.6493 56.8002 38.9748 56.4747 39.1647Z" fill="url(#paint4_linear_4001_21357)"/>
</g>
<defs>
<linearGradient id="paint0_linear_4001_21357" x1="1775.69" y1="526.46" x2="523.953" y2="2493.23" gradientUnits="userSpaceOnUse">
<stop stop-color="#41873F"/>
<stop offset="0.3288" stop-color="#418B3D"/>
<stop offset="0.6352" stop-color="#419637"/>
<stop offset="0.9319" stop-color="#3FA92D"/>
<stop offset="1" stop-color="#3FAE2A"/>
</linearGradient>
<linearGradient id="paint1_linear_4001_21357" x1="1112.9" y1="1624.08" x2="4247.68" y2="-79.0398" gradientUnits="userSpaceOnUse">
<stop offset="0.1376" stop-color="#41873F"/>
<stop offset="0.4032" stop-color="#54A044"/>
<stop offset="0.7136" stop-color="#66B848"/>
<stop offset="0.9081" stop-color="#6CC04A"/>
</linearGradient>
<linearGradient id="paint2_linear_4001_21357" x1="-77.3246" y1="1474.54" x2="2565.09" y2="1474.54" gradientUnits="userSpaceOnUse">
<stop offset="0.0919165" stop-color="#6CC04A"/>
<stop offset="0.2864" stop-color="#66B848"/>
<stop offset="0.5968" stop-color="#54A044"/>
<stop offset="0.8624" stop-color="#41873F"/>
</linearGradient>
<linearGradient id="paint3_linear_4001_21357" x1="-1296.48" y1="443.292" x2="1345.94" y2="443.292" gradientUnits="userSpaceOnUse">
<stop offset="0.0919165" stop-color="#6CC04A"/>
<stop offset="0.2864" stop-color="#66B848"/>
<stop offset="0.5968" stop-color="#54A044"/>
<stop offset="0.8624" stop-color="#41873F"/>
</linearGradient>
<linearGradient id="paint4_linear_4001_21357" x1="1730.91" y1="-1662.12" x2="1061.49" y2="1845.67" gradientUnits="userSpaceOnUse">
<stop stop-color="#41873F"/>
<stop offset="0.3288" stop-color="#418B3D"/>
<stop offset="0.6352" stop-color="#419637"/>
<stop offset="0.9319" stop-color="#3FA92D"/>
<stop offset="1" stop-color="#3FAE2A"/>
</linearGradient>
</defs>
</svg>
