<svg width="172" height="128" viewBox="0 0 172 128" fill="none" xmlns="http://www.w3.org/2000/svg">
<path fill-rule="evenodd" clip-rule="evenodd" d="M52.2776 123.235C52.1502 123.01 52.0366 122.777 51.9377 122.538C51.2514 120.95 51.0401 119.197 51.3294 117.492H10.734L71.0635 11.3252L90.8692 46.1417L96.6123 35.9794L79.3472 5.5642C78.8641 4.68752 75.9478 0 70.9204 0C68.6482 0 65.392 0.984022 62.744 5.63576L1.62731 113.091C1.10846 114.021 -1.41421 118.906 1.09057 123.235C2.23562 125.203 4.66883 127.547 10.0362 127.547H61.2233C55.8917 127.547 53.4227 125.239 52.2776 123.235Z" fill="#01C58E"/>
<path fill-rule="evenodd" clip-rule="evenodd" d="M169.966 113.091L119.745 24.6182C119.226 23.6878 116.328 18.9824 111.282 18.9824C109.01 18.9824 105.754 19.9486 103.106 24.6003L96.6113 35.9792L102.39 46.1414L111.336 30.3076L161.02 117.492H142.127C142.369 118.933 142.233 120.413 141.733 121.786C141.628 122.089 141.496 122.382 141.34 122.663L141.179 122.985C138.638 127.314 133.145 127.547 132.072 127.547H161.628C162.72 127.547 168.194 127.314 170.735 122.985C171.862 121.017 172.667 117.707 169.966 113.091Z" fill="#108775"/>
<path fill-rule="evenodd" clip-rule="evenodd" d="M141.179 122.985L141.34 122.663C141.497 122.383 141.629 122.089 141.734 121.786C142.234 120.413 142.369 118.934 142.128 117.492C141.849 115.938 141.291 114.447 140.482 113.091L102.427 46.1418L96.612 35.9795L90.8331 46.1418L52.7962 113.091C52.0577 114.463 51.5613 115.952 51.3291 117.492C51.023 119.192 51.2156 120.945 51.8837 122.538C51.9827 122.777 52.0962 123.01 52.2237 123.235C53.3687 125.203 55.8019 127.547 61.1693 127.547H132.019C133.146 127.547 138.639 127.315 141.179 122.985ZM96.612 56.304L131.393 117.492H61.8492L96.612 56.304Z" fill="#2F495E"/>
</svg>
