<svg width="1408" height="1408" viewBox="0 0 1408 1408" fill="none" xmlns="http://www.w3.org/2000/svg">
<path d="M106.378 914.554H434.195C426.287 847.887 422.102 776.981 422.102 703.503C422.102 630.026 426.287 559.12 434.195 492.452H106.378C83.0459 558.465 70.3503 629.501 70.3503 703.503C70.3503 777.505 83.0459 848.542 106.378 914.554ZM136.164 984.905C219.908 1153.42 376.52 1279.33 564.773 1321.41C509.962 1246.8 467.982 1128.22 444.174 984.905H136.164ZM1300.63 914.554C1323.96 848.542 1336.66 777.505 1336.66 703.503C1336.66 629.501 1323.96 558.465 1300.63 492.452H972.811C980.719 559.12 984.905 630.026 984.905 703.503C984.905 776.981 980.719 847.887 972.811 914.554H1300.63ZM1270.84 984.905H962.832C939.025 1128.22 897.045 1246.8 842.234 1321.41C1030.49 1279.33 1187.1 1153.42 1270.84 984.905ZM505.425 914.554H901.582C909.912 848.593 914.554 777.57 914.554 703.503C914.554 629.437 909.912 558.414 901.582 492.452H505.425C497.094 558.414 492.452 629.437 492.452 703.503C492.452 777.57 497.094 848.593 505.425 914.554ZM516.018 984.905C552.755 1193.69 627.389 1336.66 703.503 1336.66C779.617 1336.66 854.252 1193.69 890.988 984.905H516.018ZM136.164 422.102H444.174C467.982 278.789 509.962 160.204 564.773 85.5958C376.52 127.678 219.908 253.589 136.164 422.102ZM1270.84 422.102C1187.1 253.589 1030.49 127.678 842.234 85.5958C897.045 160.204 939.025 278.789 962.832 422.102H1270.84ZM516.018 422.102H890.988C854.252 213.314 779.617 70.3503 703.503 70.3503C627.389 70.3503 552.755 213.314 516.018 422.102ZM703.503 1407.01C314.969 1407.01 0 1092.04 0 703.503C0 314.969 314.969 0 703.503 0C1092.04 0 1407.01 314.969 1407.01 703.503C1407.01 1092.04 1092.04 1407.01 703.503 1407.01Z" fill="black"/>
</svg>
