<svg width="60" height="60" viewBox="0 0 60 60" fill="none" xmlns="http://www.w3.org/2000/svg">
<rect x="0.814229" y="0.814229" width="57.8103" height="57.8103" rx="13.5952" fill="url(#paint0_linear_61_97)" stroke="url(#paint1_linear_61_97)" stroke-width="1.62846"/>
<path d="M25.0624 33.4L23.8124 32.15L19.9374 33.3875H19.8124C19.7515 33.3913 19.6905 33.3821 19.6334 33.3606C19.5763 33.339 19.5244 33.3056 19.4811 33.2625L18.5749 32.3688C18.5017 32.2991 18.4548 32.2063 18.4423 32.106C18.4298 32.0058 18.4523 31.9043 18.5061 31.8188L19.5624 30C20.2166 28.8804 21.1293 27.9336 22.2243 27.2388C23.3192 26.544 24.5645 26.1214 25.8561 26.0063L27.4124 25.8688M27.4124 25.8688C28.3166 24.7938 29.1499 23.8729 29.9124 23.1063C31.3592 21.5738 33.0861 20.3327 34.9999 19.45C36.9506 18.7209 39.0247 18.3791 41.1061 18.4438C41.2321 18.4449 41.3528 18.4941 41.4437 18.5813C41.4869 18.621 41.5215 18.6693 41.5452 18.7231C41.5688 18.7769 41.5811 18.835 41.5812 18.8938C41.6238 20.9815 41.2521 23.0569 40.4874 25C39.6275 26.9194 38.4003 28.652 36.8749 30.1C36.1062 30.875 35.1811 31.7063 34.1124 32.6L33.9749 34.15C33.8627 35.441 33.4434 36.6865 32.7519 37.7824C32.0604 38.8783 31.1168 39.793 29.9999 40.45L28.1936 41.5063C28.1224 41.5438 28.0429 41.5632 27.9624 41.5625C27.8428 41.5601 27.7278 41.5158 27.6374 41.4375L26.7311 40.525C26.6726 40.4691 26.6311 40.3978 26.6112 40.3193C26.5913 40.2408 26.5939 40.1583 26.6186 40.0813L27.8249 36.1625M27.4124 25.8688L23.8436 32.1813M27.8249 36.1625L26.6124 34.95M27.8249 36.1625L34.1374 32.6M38.3874 24.1875C38.3891 23.509 38.1215 22.8575 37.6435 22.3759C37.1655 21.8944 36.5159 21.6221 35.8374 21.6188C35.4898 21.6016 35.1424 21.6552 34.8162 21.7764C34.49 21.8976 34.1918 22.0838 33.9397 22.3238C33.6876 22.5637 33.4869 22.8523 33.3498 23.1722C33.2127 23.492 33.142 23.8364 33.142 24.1844C33.142 24.5324 33.2127 24.8768 33.3498 25.1966C33.4869 25.5164 33.6876 25.8051 33.9397 26.045C34.1918 26.2849 34.49 26.4712 34.8162 26.5923C35.1424 26.7135 35.4898 26.7672 35.8374 26.75C36.5111 26.751 37.158 26.486 37.6374 26.0125C37.8786 25.7746 38.0688 25.4901 38.1967 25.1764C38.3245 24.8627 38.3873 24.5262 38.3811 24.1875H38.3874Z" stroke="white" stroke-width="1.5" stroke-linecap="round" stroke-linejoin="round"/>
<path d="M23.1254 36.8752C25.6254 36.4127 30.0629 32.2502 30.5816 29.4189C27.7316 29.9627 23.5691 34.3752 23.1254 36.8752Z" stroke="white" stroke-width="1.5" stroke-linecap="round" stroke-linejoin="round"/>
<defs>
<linearGradient id="paint0_linear_61_97" x1="5.5" y1="65" x2="33.6781" y2="-7.50881" gradientUnits="userSpaceOnUse">
<stop stop-color="#3CA0D2"/>
<stop offset="1" stop-color="#48DCA6"/>
</linearGradient>
<linearGradient id="paint1_linear_61_97" x1="7.69529e-07" y1="5.29249" x2="29.7194" y2="59.4387" gradientUnits="userSpaceOnUse">
<stop stop-color="#8DCBE8"/>
<stop offset="1" stop-color="#96EECF"/>
</linearGradient>
</defs>
</svg>
