<svg width="19" height="16" viewBox="0 0 19 16" fill="none" xmlns="http://www.w3.org/2000/svg">
<path d="M1.16484 6.96803C1.16484 6.96803 9.56811 3.45574 12.4825 2.21896C13.5997 1.72428 17.3884 0.141243 17.3884 0.141243C17.3884 0.141243 19.1371 -0.551299 18.9914 1.13063C18.9428 1.82322 18.5542 4.2472 18.1657 6.8691C17.5827 10.5793 16.9513 14.6358 16.9513 14.6358C16.9513 14.6358 16.8542 15.7736 16.0284 15.9715C15.2026 16.1694 13.8425 15.279 13.5997 15.081C13.4054 14.9326 9.9567 12.7065 8.69375 11.6182C8.35372 11.3214 7.96518 10.7278 8.74231 10.0352C10.491 8.40267 12.5796 6.37443 13.8425 5.08824C14.4255 4.49459 15.0083 3.10942 12.5796 4.79139C9.13093 7.21542 5.7308 9.49099 5.7308 9.49099C5.7308 9.49099 4.95359 9.98566 3.49639 9.54041C2.03914 9.09526 0.339041 8.50161 0.339041 8.50161C0.339041 8.50161 -0.826624 7.75955 1.16484 6.96803Z" fill="#48DCA6"/>
</svg>
