<svg width="34" height="34" viewBox="0 0 34 34" fill="none" xmlns="http://www.w3.org/2000/svg">
<path d="M2.89199 17.0738C2.89199 22.7368 6.18288 27.6303 10.9549 29.9496L4.1306 11.2515C3.31252 13.0834 2.89044 15.0675 2.89199 17.0738ZM26.8562 16.3518C26.8562 17.5766 26.3855 18.9978 25.7668 20.9766L24.3401 25.7451L19.17 10.3662C20.0308 10.321 20.8075 10.2298 20.8075 10.2298C21.5781 10.1386 21.4875 9.00593 20.7157 9.05139C20.7157 9.05139 18.3991 9.23296 16.903 9.23296C15.4972 9.23296 13.1346 9.05139 13.1346 9.05139C12.3637 9.00593 12.2733 10.1847 13.0442 10.2298C13.0442 10.2298 13.7741 10.321 14.5444 10.3662L16.7737 16.473L13.6426 25.8627L8.43279 10.3665C9.29519 10.3213 10.0705 10.2301 10.0705 10.2301C10.8406 10.1389 10.7497 9.0062 9.97847 9.05166C9.97847 9.05166 7.66213 9.23324 6.16573 9.23324C5.89732 9.23324 5.58073 9.22643 5.24508 9.21636C7.80315 5.3323 12.2003 2.76797 17.1983 2.76797C20.9229 2.76797 24.3139 4.19169 26.8595 6.52354C26.7974 6.52 26.7373 6.51211 26.6738 6.51211C25.2689 6.51211 24.2717 7.73629 24.2717 9.05139C24.2717 10.2298 24.9512 11.2278 25.6764 12.4063C26.2211 13.3593 26.8562 14.5838 26.8562 16.3518ZM17.4493 18.3252L21.8473 30.3729C21.8752 30.4416 21.9093 30.5075 21.9492 30.57C20.462 31.0926 18.8643 31.3809 17.1983 31.3809C15.8302 31.3809 14.4692 31.1846 13.1569 30.7978L17.4493 18.3252ZM29.7516 10.21C30.9051 12.3136 31.5079 14.6747 31.5041 17.0738C31.5041 22.3519 28.6434 26.9598 24.3902 29.44L28.7601 16.8054C29.5768 14.7648 29.8479 13.1328 29.8479 11.6811C29.8479 11.1551 29.8131 10.6657 29.7516 10.21ZM17.1983 0.397461C26.3934 0.397461 33.8757 7.87839 33.876 17.0738C33.876 26.2705 26.3934 33.7512 17.1983 33.7512C8.00268 33.7512 0.521484 26.2702 0.521484 17.0738C0.521484 7.87839 8.00296 0.397461 17.1983 0.397461ZM17.1983 32.9865C25.9715 32.9865 33.1097 25.848 33.1097 17.0738C33.1097 8.30033 25.9718 1.1624 17.1983 1.1624C8.42436 1.1624 1.28616 8.30033 1.28616 17.0738C1.28616 25.848 8.42463 32.9865 17.1983 32.9865Z" fill="#00749A"/>
</svg>
